<?xml version="1.0" encoding="utf-8"?><svg viewBox="0 0 159 121" fill="none" xmlns="http://www.w3.org/2000/svg">
<g clip-path="url(#clip0)">
<path d="M158.34 107.32C158.34 107.32 158.34 103.43 158.34 103.42C158.34 103.05 158.25 102.73 158.09 102.5C158.05 102.44 143.25 82.11 143.25 82.11V8.09C143.25 3.63 139.62 0 135.16 0H21.81C17.35 0 13.72 3.63 13.72 8.09V82.16C13.72 82.16 0.72 101.79 0.47 102.15C0.21 102.51 0 103.04 0 103.47C0 103.9 0 107.32 0 107.32C0 114.46 5.81 120.28 12.96 120.28H145.39C152.53 120.27 158.34 114.46 158.34 107.32ZM17.72 80.76V14.21H139.25V80.76H17.72ZM16.79 84.76H140.23L152.4 101.45H95.13C94.54 101.45 93.97 101.71 93.59 102.17L91.14 105.1H67.2L64.75 102.17C64.37 101.71 63.81 101.45 63.21 101.45H5.73L16.79 84.76ZM21.81 4H135.17C137.42 4 139.26 5.83 139.26 8.09V10.21H17.72V8.09C17.72 5.83 19.55 4 21.81 4ZM154.34 107.32C154.34 112.26 150.32 116.28 145.38 116.28H12.96C8.02 116.28 4 112.26 4 107.32V105.45H62.27L64.72 108.38C65.1 108.84 65.66 109.1 66.26 109.1H92.09C92.68 109.1 93.25 108.84 93.63 108.38L96.08 105.45H154.35V107.32H154.34Z" fill="#050B27"/>
<path d="M115.78 40.47V48.52C113.59 49.34 112.02 51.44 112.02 53.91C112.02 57.08 114.6 59.67 117.78 59.67C120.96 59.67 123.54 57.09 123.54 53.91C123.54 51.44 121.97 49.33 119.78 48.52V40.48C119.78 39.38 118.88 38.48 117.78 38.48C116.68 38.47 115.78 39.36 115.78 40.47ZM117.78 55.66C116.81 55.66 116.02 54.87 116.02 53.9C116.02 52.93 116.81 52.14 117.78 52.14C118.75 52.14 119.54 52.93 119.54 53.9C119.54 54.88 118.75 55.66 117.78 55.66Z" fill="#C177F7"/>
<path d="M122.64 61.27C122.34 60.21 121.23 59.59 120.17 59.89C119.11 60.19 118.49 61.3 118.79 62.36L120.77 69.35H114.8L116.78 62.36C117.08 61.3 116.46 60.19 115.4 59.89C114.34 59.59 113.23 60.21 112.93 61.27L110.77 68.88L110.74 69C110.5 70.1 110.75 71.21 111.42 72.04C112.09 72.87 113.12 73.35 114.25 73.35H121.32C122.45 73.35 123.48 72.87 124.15 72.04C124.82 71.21 125.07 70.1 124.83 69L122.64 61.27Z" fill="#66B8F9"/>
<path d="M114.46 38.75C116.74 38.08 117.08 36.73 117.08 35.98C117.08 35.24 116.74 33.89 114.46 33.21L78.7 22.66C76.81 22.1 73.71 22.1 71.81 22.66L36.06 33.21C33.77 33.88 33.43 35.23 33.43 35.98C33.43 36.72 33.77 38.07 36.06 38.75L48.65 42.47V53.41C48.65 54.98 49.4 57.25 50.83 58.53C56.67 63.76 65.57 66.76 75.26 66.76C84.93 66.76 93.84 63.75 99.69 58.51C101.12 57.23 101.87 54.96 101.87 53.39V42.46L114.46 38.75ZM72.95 26.5C74.11 26.16 76.41 26.16 77.57 26.5L109.7 35.98L77.57 45.46C76.41 45.8 74.11 45.8 72.95 45.46L40.82 35.98L72.95 26.5ZM97.87 53.39C97.87 54.06 97.43 55.16 97.02 55.53C91.97 60.06 83.84 62.76 75.26 62.76C66.68 62.76 58.54 60.06 53.5 55.55C53.09 55.18 52.65 54.08 52.65 53.41V43.65L71.81 49.3C72.76 49.58 73.98 49.73 75.25 49.73C76.52 49.73 77.75 49.58 78.69 49.3L97.85 43.64V53.39H97.87Z" fill="#050B27"/>
</g>
<defs>
<clipPath id="clip0">
<rect width="158.34" height="120.27" fill="white"/>
</clipPath>
</defs>
</svg>
