<?xml version="1.0" encoding="utf-8"?><svg viewBox="0 0 159 121" fill="none" xmlns="http://www.w3.org/2000/svg">
<g clip-path="url(#clip0)">
<path d="M0 103.55C0 104 0 107.32 0 107.32C0 114.46 5.81 120.28 12.96 120.28H145.39C152.53 120.28 158.35 114.47 158.35 107.32C158.35 107.32 158.37 104.15 158.35 103.55C158.33 102.96 158.07 102.42 157.91 102.2C157.75 101.98 143.26 82.11 143.26 82.11V8.09C143.26 3.63 139.63 0 135.17 0H21.81C17.35 0 13.72 3.63 13.72 8.09V82.16C13.72 82.16 0.72 101.78 0.4 102.26C0.2 102.55 0 103.1 0 103.55ZM16.79 84.76H140.23L152.4 101.45H95.13C94.39 101.45 93.72 101.85 93.37 102.5L90.89 107.1H67.45L64.97 102.5C64.62 101.85 63.95 101.45 63.21 101.45H5.73L16.79 84.76ZM154.34 107.32C154.34 112.26 150.32 116.28 145.38 116.28H12.96C8.02 116.28 4 112.26 4 107.32V105.45H62.02L64.5 110.05C64.85 110.7 65.52 111.1 66.26 111.1H92.09C92.83 111.1 93.5 110.7 93.85 110.05L96.33 105.45H154.35V107.32H154.34ZM17.72 8.09C17.72 5.84 19.55 4 21.81 4H135.17C137.42 4 139.26 5.83 139.26 8.09V80.76H17.72V8.09Z" fill="#050B27"/>
<path d="M39.21 50.41C38.11 50.41 37.21 51.31 37.21 52.41V76.9C37.21 78 38.11 78.9 39.21 78.9C40.31 78.9 41.21 78 41.21 76.9V52.41C41.21 51.31 40.32 50.41 39.21 50.41Z" fill="#050B27"/>
<path d="M52.59 34.3C59.73 34.3 65.55 28.49 65.55 21.34C65.55 14.2 59.74 8.38 52.59 8.38C45.44 8.38 39.63 14.19 39.63 21.34C39.63 28.48 45.45 34.3 52.59 34.3ZM52.59 12.38C57.53 12.38 61.55 16.4 61.55 21.34C61.55 26.28 57.53 30.3 52.59 30.3C47.65 30.3 43.63 26.28 43.63 21.34C43.63 16.4 47.65 12.38 52.59 12.38Z" fill="#C177F7"/>
<path d="M105.38 54.43C103.94 50.34 99.44 48.18 95.33 49.62C95.33 49.62 92.42 50.66 87.91 52.22C87.68 52.3 87.1 52.18 86.92 52.02C80.56 46.31 71.51 38.27 71.48 38.24C69.43 36.5 65.3 35.74 62.94 35.65H42.26C33 35.65 25.47 43.18 25.47 52.44V76.61C25.47 77.71 26.37 78.61 27.47 78.61C28.57 78.61 29.47 77.71 29.47 76.61V52.44C29.47 45.39 35.21 39.65 42.26 39.65H62.85C65.1 39.74 67.97 40.52 68.85 41.26C68.85 41.26 77.9 49.3 84.24 54.99C85.51 56.13 87.6 56.56 89.21 56C93.74 54.44 96.66 53.39 96.66 53.39C98.68 52.68 100.89 53.74 101.6 55.76C102.31 57.77 101.25 59.99 99.23 60.7L86.75 65.09C86.37 65.22 85.68 65.3 85.1 65.29C84.25 65.16 83.35 64.78 82.84 64.31C82.84 64.31 73.36 55.81 67.3 50.35C66.71 49.82 65.87 49.69 65.15 50.01C64.43 50.33 63.96 51.05 63.96 51.84V76.62C63.96 77.72 64.86 78.62 65.96 78.62C67.06 78.62 67.96 77.72 67.96 76.62V56.32C73.65 61.43 80.17 67.28 80.17 67.28C81.29 68.29 82.97 69.03 84.66 69.26C84.72 69.27 84.77 69.27 84.83 69.28C85.26 69.3 86.75 69.33 88.09 68.86L100.57 64.47C104.66 63.02 106.82 58.52 105.38 54.43Z" fill="#050B27"/>
<path d="M128.6 21.92H92.25C89.49 21.92 87.25 24.16 87.25 26.92V45.83C87.25 46.93 88.15 47.83 89.25 47.83C90.35 47.83 91.25 46.93 91.25 45.83V26.92C91.25 26.37 91.7 25.92 92.25 25.92H128.61C129.16 25.92 129.61 26.37 129.61 26.92V71.45C129.61 72 129.16 72.45 128.61 72.45H92.25C92.12 72.45 91.99 72.43 91.87 72.38C90.85 71.96 89.68 72.45 89.26 73.47C88.84 74.49 89.33 75.66 90.35 76.08C90.95 76.33 91.59 76.45 92.25 76.45H128.61C131.37 76.45 133.61 74.21 133.61 71.45V26.92C133.6 24.16 131.36 21.92 128.6 21.92Z" fill="#66B8F9"/>
</g>
<defs>
<clipPath id="clip0">
<rect width="158.35" height="120.27" fill="white"/>
</clipPath>
</defs>
</svg>
