<svg width="185" height="139" viewBox="0 0 185 139" fill="none" xmlns="http://www.w3.org/2000/svg">
<path d="M104.24 43.13C103.739 42.965 103.192 43.0049 102.72 43.2409C102.248 43.4769 101.889 43.89 101.72 44.39C100.183 49.0126 99.7616 53.933 100.489 58.7497C101.216 63.5664 103.072 68.1428 105.905 72.1057C108.738 76.0686 112.467 79.3056 116.789 81.5526C121.111 83.7996 125.903 84.9928 130.775 85.0351C135.646 85.0773 140.458 83.9673 144.818 81.7956C149.179 79.624 152.964 76.4521 155.865 72.539C158.766 68.6258 160.701 64.0822 161.512 59.2789C162.322 54.4755 161.986 49.5486 160.53 44.9C160.347 44.4261 159.991 44.0394 159.534 43.8184C159.077 43.5975 158.552 43.5588 158.067 43.7102C157.582 43.8616 157.174 44.1918 156.923 44.6338C156.673 45.0757 156.6 45.5964 156.72 46.09C157.985 50.1357 158.276 54.4232 157.569 58.6028C156.862 62.7824 155.178 66.7358 152.653 70.1407C150.128 73.5456 146.834 76.3056 143.04 78.1957C139.246 80.0857 135.059 81.0524 130.82 81.0168C126.581 80.9812 122.411 79.9444 118.649 77.9909C114.887 76.0373 111.64 73.2224 109.172 69.7756C106.705 66.3288 105.087 62.3477 104.451 58.1568C103.814 53.9659 104.177 49.6839 105.51 45.66C105.593 45.4105 105.626 45.1471 105.607 44.8848C105.588 44.6226 105.518 44.3666 105.4 44.1316C105.282 43.8966 105.118 43.6872 104.919 43.5153C104.72 43.3435 104.49 43.2125 104.24 43.13Z" fill="white"/>
<path d="M151.76 88.1899H110.4C101.854 88.2138 93.6663 91.6232 87.6292 97.6715C81.592 103.72 78.1978 111.914 78.1899 120.46V133.67C78.1926 135.08 78.7539 136.432 79.751 137.429C80.7481 138.426 82.0999 138.987 83.51 138.99H178.76C180.17 138.987 181.522 138.426 182.519 137.429C183.516 136.432 184.077 135.08 184.08 133.67V120.46C184.072 111.895 180.663 103.684 174.602 97.6327C168.541 91.5812 160.325 88.1846 151.76 88.1899ZM180.03 133.67C180.03 134.02 179.891 134.356 179.643 134.603C179.396 134.851 179.06 134.99 178.71 134.99H83.46C83.2866 134.99 83.115 134.956 82.9548 134.889C82.7947 134.823 82.6492 134.726 82.5266 134.603C82.404 134.481 82.3068 134.335 82.2405 134.175C82.1741 134.015 82.1399 133.843 82.1399 133.67V120.46C82.1478 112.966 85.1275 105.782 90.4253 100.482C95.7231 95.1827 102.906 92.2005 110.4 92.1899H151.76C159.255 92.1979 166.441 95.1789 171.741 100.479C177.041 105.779 180.022 112.965 180.03 120.46V133.67Z" fill="white"/>
<path d="M174.82 22.8V32.53C173.366 33.0059 172.129 33.9845 171.332 35.2902C170.535 36.5958 170.229 38.143 170.47 39.6537C170.711 41.1645 171.483 42.5398 172.646 43.5327C173.81 44.5257 175.29 45.0711 176.82 45.0711C178.35 45.0711 179.83 44.5257 180.993 43.5327C182.157 42.5398 182.929 41.1645 183.17 39.6537C183.411 38.143 183.105 36.5958 182.308 35.2902C181.511 33.9845 180.274 33.0059 178.82 32.53V22.8C178.82 22.2696 178.609 21.7609 178.234 21.3858C177.859 21.0108 177.35 20.8 176.82 20.8C176.289 20.8 175.781 21.0108 175.406 21.3858C175.031 21.7609 174.82 22.2696 174.82 22.8ZM176.82 41.0701C176.339 41.0701 175.87 40.9275 175.47 40.6605C175.07 40.3935 174.759 40.014 174.575 39.57C174.391 39.1259 174.343 38.6373 174.436 38.166C174.53 37.6946 174.762 37.2616 175.102 36.9218C175.441 36.5819 175.875 36.3505 176.346 36.2567C176.817 36.163 177.306 36.2111 177.75 36.395C178.194 36.5789 178.573 36.8904 178.84 37.29C179.107 37.6896 179.25 38.1595 179.25 38.6401C179.25 39.2845 178.994 39.9026 178.538 40.3583C178.083 40.814 177.464 41.0701 176.82 41.0701V41.0701Z" fill="#C177F7"/>
<path d="M182.19 47.4199C182.132 47.1526 182.021 46.8999 181.861 46.6774C181.702 46.455 181.499 46.2676 181.265 46.1267C181.031 45.9859 180.77 45.8946 180.499 45.8585C180.228 45.8225 179.952 45.8424 179.689 45.9171C179.426 45.9917 179.181 46.1196 178.969 46.2927C178.757 46.4658 178.583 46.6805 178.458 46.9235C178.332 47.1665 178.258 47.4327 178.24 47.7055C178.221 47.9784 178.258 48.2522 178.35 48.5099L180.8 57.2099H172.8L175.26 48.5099C175.332 48.2571 175.353 47.9927 175.322 47.7318C175.291 47.4708 175.21 47.2185 175.082 46.9891C174.823 46.5259 174.39 46.1845 173.88 46.0399C173.369 45.8954 172.822 45.9596 172.359 46.2184C171.896 46.4772 171.555 46.9094 171.41 47.4199L168.87 56.4199V56.5399C168.731 57.1059 168.725 57.6963 168.852 58.2651C168.979 58.8339 169.235 59.3658 169.6 59.8195C169.966 60.2732 170.431 60.6365 170.96 60.8811C171.489 61.1258 172.067 61.2451 172.65 61.2299H180.98C181.563 61.2471 182.142 61.1291 182.672 60.8852C183.202 60.6412 183.669 60.2779 184.035 59.8236C184.401 59.3694 184.657 58.8365 184.783 58.2669C184.908 57.6972 184.901 57.1061 184.76 56.5399L182.19 47.4199Z" fill="#66B8F9"/>
<path d="M127.3 0.930055L87.8101 12.5801C85.4201 13.2901 85.0601 14.6701 85.0601 15.4401C85.0601 16.2101 85.4201 17.5901 87.8101 18.2901L102.4 22.6001V34.8401C102.45 36.8734 103.272 38.8115 104.7 40.2601C110.99 45.9001 120.6 49.1401 131.04 49.1401C141.48 49.1401 151.09 45.8901 157.39 40.2401C158.818 38.7915 159.64 36.8534 159.69 34.8201V22.6001L174.28 18.2901C176.67 17.5901 177.03 16.2001 177.03 15.4401C177.03 14.6801 176.67 13.2901 174.28 12.5801L134.79 0.930055C132.331 0.32019 129.759 0.32019 127.3 0.930055V0.930055ZM155.69 34.8201C155.634 35.7213 155.283 36.579 154.69 37.2601C149.19 42.1901 140.34 45.1401 131.01 45.1401C121.68 45.1401 112.83 42.2001 107.34 37.2801C106.747 36.599 106.395 35.7413 106.34 34.8401V23.7801L127.24 29.9501C129.699 30.5636 132.271 30.5636 134.73 29.9501L155.63 23.7801L155.69 34.8201ZM133.69 26.1101C131.968 26.4999 130.181 26.4999 128.46 26.1101L92.3 15.4401L128.46 4.76006C130.182 4.37553 131.968 4.37553 133.69 4.76006L169.85 15.4401L133.69 26.1101Z" fill="white"/>
<path d="M74.5898 137C74.5898 136.47 74.3792 135.961 74.0041 135.586C73.6291 135.211 73.1203 135 72.5898 135H12.81C10.7139 134.997 8.70438 134.163 7.22313 132.68C5.74188 131.197 4.9099 129.186 4.9099 127.09V125.6H57.0698L59.26 129.51C59.437 129.817 59.6923 130.071 59.9997 130.247C60.3072 130.422 60.6559 130.513 61.01 130.51H72.3598C72.8903 130.51 73.3991 130.299 73.7742 129.924C74.1492 129.549 74.3598 129.041 74.3598 128.51C74.3598 127.98 74.1492 127.471 73.7742 127.096C73.3991 126.721 72.8903 126.51 72.3598 126.51H62.1899L60 122.6C59.8238 122.295 59.5699 122.042 59.2644 121.866C58.9588 121.69 58.6124 121.599 58.26 121.6H6.63988L16.3899 106.89H75.8899C76.4203 106.89 76.9291 106.679 77.3042 106.304C77.6793 105.929 77.8899 105.421 77.8899 104.89C77.8899 104.36 77.6793 103.851 77.3042 103.476C76.9291 103.101 76.4203 102.89 75.8899 102.89H17.3198V37.3601C17.3198 36.4318 17.6886 35.5416 18.345 34.8852C19.0013 34.2289 19.8916 33.8601 20.8198 33.8601H89.55C90.0805 33.8601 90.589 33.6494 90.9641 33.2743C91.3392 32.8992 91.55 32.3905 91.55 31.8601C91.55 31.3297 91.3392 30.821 90.9641 30.4459C90.589 30.0708 90.0805 29.8601 89.55 29.8601H20.8198C18.8323 29.8654 16.9278 30.6573 15.5224 32.0626C14.1171 33.468 13.3251 35.3726 13.3198 37.3601V104.27C13.3198 104.27 1.52981 122.12 1.31981 122.39C1.03313 122.775 0.894804 123.251 0.929919 123.73V127.08C0.932562 130.236 2.18689 133.263 4.41771 135.495C6.64854 137.728 9.67364 138.985 12.8298 138.99H72.6098C73.1351 138.985 73.6373 138.773 74.0078 138.401C74.3783 138.029 74.5872 137.525 74.5898 137Z" fill="white"/>
<path d="M77.1899 61.2C77.1899 57.994 76.2391 54.8599 74.4579 52.1942C72.6767 49.5285 70.1453 47.4508 67.1833 46.2239C64.2213 44.997 60.962 44.676 57.8175 45.3015C54.6731 45.9269 51.7847 47.4708 49.5177 49.7378C47.2507 52.0048 45.7067 54.8932 45.0812 58.0376C44.4557 61.182 44.7769 64.4413 46.0038 67.4033C47.2307 70.3653 49.3083 72.8969 51.974 74.6781C54.6398 76.4593 57.7739 77.41 60.9799 77.41C65.2774 77.4047 69.3974 75.6952 72.4362 72.6563C75.475 69.6175 77.1846 65.4975 77.1899 61.2V61.2ZM48.7699 61.2C48.7699 58.7851 49.4859 56.4244 50.8275 54.4165C52.1692 52.4085 54.0762 50.8436 56.3073 49.9194C58.5384 48.9953 60.9935 48.7535 63.362 49.2246C65.7305 49.6957 67.9061 50.8586 69.6137 52.5662C71.3213 54.2738 72.4841 56.4494 72.9552 58.8179C73.4264 61.1864 73.1846 63.6415 72.2604 65.8725C71.3363 68.1036 69.7713 70.0106 67.7633 71.3522C65.7554 72.6939 63.3948 73.41 60.9799 73.41C57.7407 73.41 54.6338 72.1239 52.3424 69.8344C50.051 67.5448 48.7626 64.4392 48.7599 61.2H48.7699Z" fill="white"/>
<path d="M30.3999 97.3201C30.3225 97.8438 30.4559 98.3768 30.7708 98.8023C31.0857 99.2278 31.5564 99.5111 32.0799 99.5901C32.1796 99.5999 32.2801 99.5999 32.3799 99.5901C32.8637 99.5952 33.333 99.4248 33.7007 99.1104C34.0684 98.7959 34.3098 98.3589 34.3799 97.8801C34.9509 94.1979 36.8164 90.84 39.6409 88.4096C42.4654 85.9792 46.0639 84.6356 49.7901 84.6201H72.19C74.7513 84.6186 77.2734 85.2494 79.5325 86.4566C81.7916 87.6637 83.7177 89.4099 85.1399 91.5401C85.2783 91.7743 85.4632 91.9777 85.6829 92.138C85.9026 92.2983 86.1525 92.4121 86.4177 92.4725C86.6829 92.5328 86.9577 92.5384 87.2251 92.489C87.4926 92.4395 87.7473 92.3361 87.9734 92.1849C88.1995 92.0337 88.3922 91.838 88.5401 91.6097C88.6879 91.3814 88.7877 91.1254 88.8333 90.8573C88.8788 90.5891 88.8694 90.3145 88.8052 90.0502C88.741 89.7859 88.6235 89.5375 88.46 89.3201C86.6744 86.6421 84.2549 84.4467 81.4165 82.9289C78.5781 81.4112 75.4087 80.6181 72.19 80.6201H49.7901C45.099 80.6392 40.5687 82.3317 37.0142 85.3931C33.4597 88.4544 31.1143 92.6838 30.3999 97.3201V97.3201Z" fill="white"/>
</svg>
