<svg width="176" height="171" viewBox="0 0 176 171" fill="none" xmlns="http://www.w3.org/2000/svg">
<path d="M88.19 4.78998L89.7101 6.06C100.626 15.148 114.328 20.2198 128.53 20.43C129.331 23.7748 129.955 27.1595 130.4 30.57C131.641 39.5213 131.738 48.5941 130.69 57.57C129.2 69.46 125.46 79.84 119.57 88.42C112.33 98.96 101.78 106.84 88.18 111.84C74.6 106.84 64.0401 98.97 56.8001 88.42C50.9101 79.84 47.17 69.42 45.68 57.57C44.6317 48.5941 44.7292 39.5213 45.9701 30.57C46.4179 27.1607 47.0385 23.7763 47.8299 20.43C62.0354 20.2197 75.7399 15.148 86.66 6.06L88.19 4.78998V4.78998ZM88.19 0.23999C87.6809 0.240058 87.1885 0.420792 86.8001 0.75L84.11 2.98999C73.6797 11.6704 60.5398 16.4254 46.9701 16.43H46.44C45.9645 16.4297 45.5018 16.5849 45.1227 16.8719C44.7435 17.159 44.4686 17.5622 44.3399 18.02C43.2985 21.964 42.5203 25.9729 42.0101 30.02C40.7319 39.3037 40.6344 48.7119 41.7201 58.02C43.2901 70.55 47.2601 81.52 53.5101 90.63C61.3401 102.05 72.7601 110.51 87.4601 115.78C87.6932 115.868 87.9407 115.913 88.19 115.91C88.4425 115.911 88.6932 115.867 88.93 115.78C103.62 110.51 115.05 102.05 122.93 90.63C129.18 81.52 133.15 70.55 134.72 58.02C135.806 48.7119 135.708 39.3037 134.43 30.02C133.92 25.9729 133.141 21.964 132.1 18.02C131.971 17.5622 131.696 17.159 131.317 16.8719C130.938 16.5849 130.476 16.4297 130 16.43H129.47C115.884 16.4399 102.725 11.6878 92.2801 3L89.5899 0.76001C89.1985 0.429339 88.7024 0.248567 88.19 0.25V0.23999Z" fill="white"/>
<path d="M77.55 31.6901V49.2901C77.5844 49.756 77.7935 50.1916 78.1357 50.5095C78.478 50.8275 78.9279 51.0042 79.395 51.0042C79.8621 51.0042 80.3118 50.8275 80.6541 50.5095C80.9963 50.1916 81.2057 49.756 81.24 49.2901V31.6901C81.2057 31.2243 80.9963 30.7886 80.6541 30.4707C80.3118 30.1528 79.8621 29.9761 79.395 29.9761C78.9279 29.9761 78.478 30.1528 78.1357 30.4707C77.7935 30.7886 77.5844 31.2243 77.55 31.6901Z" fill="#C177F7"/>
<path d="M95.1899 31.6901V49.2901C95.2243 49.756 95.4337 50.1916 95.7759 50.5095C96.1181 50.8275 96.5678 51.0042 97.0349 51.0042C97.502 51.0042 97.952 50.8275 98.2942 50.5095C98.6364 50.1916 98.8456 49.756 98.8799 49.2901V31.6901C98.8456 31.2243 98.6364 30.7886 98.2942 30.4707C97.952 30.1528 97.502 29.9761 97.0349 29.9761C96.5678 29.9761 96.1181 30.1528 95.7759 30.4707C95.4337 30.7886 95.2243 31.2243 95.1899 31.6901Z" fill="#C177F7"/>
<path d="M79.3899 33.5302H97C97.488 33.5302 97.956 33.3363 98.301 32.9912C98.6461 32.6461 98.8398 32.1781 98.8398 31.6901C98.8398 31.2021 98.6461 30.7341 98.301 30.389C97.956 30.044 97.488 29.8501 97 29.8501H79.3899C78.9019 29.8501 78.4339 30.044 78.0889 30.389C77.7438 30.7341 77.55 31.2021 77.55 31.6901C77.55 32.1781 77.7438 32.6461 78.0889 32.9912C78.4339 33.3363 78.9019 33.5302 79.3899 33.5302V33.5302Z" fill="#C177F7"/>
<path d="M77.5502 84.4899V66.8899C77.5845 66.424 77.7936 65.9884 78.1359 65.6705C78.4781 65.3525 78.928 65.1758 79.3951 65.1758C79.8623 65.1758 80.3119 65.3525 80.6542 65.6705C80.9964 65.9884 81.2058 66.424 81.2401 66.8899V84.4899C81.2588 84.7436 81.225 84.9984 81.1407 85.2385C81.0565 85.4785 80.9235 85.6986 80.7504 85.8849C80.5772 86.0713 80.3676 86.22 80.1344 86.3217C79.9012 86.4233 79.6495 86.4758 79.3951 86.4758C79.1407 86.4758 78.8891 86.4233 78.6559 86.3217C78.4227 86.22 78.2128 86.0713 78.0397 85.8849C77.8665 85.6986 77.7338 85.4785 77.6495 85.2385C77.5653 84.9984 77.5315 84.7436 77.5502 84.4899Z" fill="#C177F7"/>
<path d="M95.1901 84.4899V66.8899C95.2244 66.424 95.4338 65.9884 95.776 65.6705C96.1182 65.3525 96.5679 65.1758 97.035 65.1758C97.5022 65.1758 97.9521 65.3525 98.2943 65.6705C98.6365 65.9884 98.8457 66.424 98.88 66.8899V84.4899C98.8987 84.7436 98.8649 84.9984 98.7806 85.2385C98.6964 85.4785 98.5637 85.6986 98.3905 85.8849C98.2173 86.0713 98.0075 86.22 97.7743 86.3217C97.5411 86.4233 97.2894 86.4758 97.035 86.4758C96.7806 86.4758 96.529 86.4233 96.2958 86.3217C96.0626 86.22 95.853 86.0713 95.6798 85.8849C95.5067 85.6986 95.3737 85.4785 95.2894 85.2385C95.2052 84.9984 95.1714 84.7436 95.1901 84.4899Z" fill="#C177F7"/>
<path d="M79.3899 82.6499H97C97.4659 82.6842 97.9015 82.8935 98.2195 83.2357C98.5374 83.5779 98.7141 84.0278 98.7141 84.4949C98.7141 84.962 98.5374 85.4118 98.2195 85.754C97.9015 86.0963 97.4659 86.3056 97 86.3399H79.3899C78.924 86.3056 78.4883 86.0963 78.1704 85.754C77.8525 85.4118 77.6758 84.962 77.6758 84.4949C77.6758 84.0278 77.8525 83.5779 78.1704 83.2357C78.4883 82.8935 78.924 82.6842 79.3899 82.6499Z" fill="#C177F7"/>
<path d="M114.6 47.45H97C96.512 47.45 96.044 47.6438 95.699 47.9889C95.3539 48.334 95.1599 48.8019 95.1599 49.2899C95.1599 49.7779 95.3539 50.2459 95.699 50.591C96.044 50.9361 96.512 51.1299 97 51.1299H114.6C115.088 51.1299 115.556 50.9361 115.901 50.591C116.246 50.2459 116.44 49.7779 116.44 49.2899C116.44 48.8019 116.246 48.334 115.901 47.9889C115.556 47.6438 115.088 47.45 114.6 47.45Z" fill="#C177F7"/>
<path d="M114.6 65.05H97C96.7584 65.05 96.5191 65.0977 96.2959 65.1901C96.0727 65.2826 95.8698 65.4181 95.699 65.589C95.5281 65.7598 95.3925 65.9627 95.3 66.1859C95.2076 66.4092 95.1599 66.6484 95.1599 66.8901C95.1599 67.1317 95.2076 67.3709 95.3 67.5942C95.3925 67.8174 95.5281 68.0203 95.699 68.1912C95.8698 68.362 96.0727 68.4976 96.2959 68.59C96.5191 68.6825 96.7584 68.73 97 68.73H114.6C114.841 68.73 115.081 68.6825 115.304 68.59C115.527 68.4976 115.73 68.362 115.901 68.1912C116.072 68.0203 116.207 67.8174 116.3 67.5942C116.392 67.3709 116.44 67.1317 116.44 66.8901C116.44 66.6484 116.392 66.4092 116.3 66.1859C116.207 65.9627 116.072 65.7598 115.901 65.589C115.73 65.4181 115.527 65.2826 115.304 65.1901C115.081 65.0977 114.841 65.05 114.6 65.05V65.05Z" fill="#C177F7"/>
<path d="M112.76 49.2899V66.89C112.76 67.378 112.954 67.846 113.299 68.191C113.644 68.5361 114.112 68.7299 114.6 68.7299C115.088 68.7299 115.556 68.5361 115.901 68.191C116.246 67.846 116.44 67.378 116.44 66.89V49.2899C116.44 48.8019 116.246 48.334 115.901 47.9889C115.556 47.6438 115.088 47.45 114.6 47.45C114.112 47.45 113.644 47.6438 113.299 47.9889C112.954 48.334 112.76 48.8019 112.76 49.2899Z" fill="#C177F7"/>
<path d="M61.79 47.45H79.3899C79.8779 47.45 80.3459 47.6438 80.6909 47.9889C81.036 48.334 81.23 48.8019 81.23 49.2899C81.23 49.7779 81.036 50.2459 80.6909 50.591C80.3459 50.9361 79.8779 51.1299 79.3899 51.1299H61.79C61.302 51.1299 60.8338 50.9361 60.4888 50.591C60.1437 50.2459 59.95 49.7779 59.95 49.2899C59.95 48.8019 60.1437 48.334 60.4888 47.9889C60.8338 47.6438 61.302 47.45 61.79 47.45Z" fill="#C177F7"/>
<path d="M61.79 65.05H79.3899C79.6315 65.05 79.8708 65.0977 80.094 65.1901C80.3172 65.2826 80.5201 65.4181 80.6909 65.589C80.8618 65.7598 80.9974 65.9627 81.0898 66.1859C81.1823 66.4092 81.23 66.6484 81.23 66.8901C81.23 67.1317 81.1823 67.3709 81.0898 67.5942C80.9974 67.8174 80.8618 68.0203 80.6909 68.1912C80.5201 68.362 80.3172 68.4976 80.094 68.59C79.8708 68.6825 79.6315 68.73 79.3899 68.73H61.79C61.5484 68.73 61.3089 68.6825 61.0857 68.59C60.8625 68.4976 60.6596 68.362 60.4888 68.1912C60.3179 68.0203 60.1826 67.8174 60.0901 67.5942C59.9976 67.3709 59.95 67.1317 59.95 66.8901C59.95 66.6484 59.9976 66.4092 60.0901 66.1859C60.1826 65.9627 60.3179 65.7598 60.4888 65.589C60.6596 65.4181 60.8625 65.2826 61.0857 65.1901C61.3089 65.0977 61.5484 65.05 61.79 65.05V65.05Z" fill="#C177F7"/>
<path d="M63.6299 49.2899V66.89C63.6299 67.378 63.4361 67.846 63.0911 68.191C62.746 68.5361 62.278 68.7299 61.79 68.7299C61.302 68.7299 60.8338 68.5361 60.4888 68.191C60.1437 67.846 59.95 67.378 59.95 66.89V49.2899C59.95 48.8019 60.1437 48.334 60.4888 47.9889C60.8338 47.6438 61.302 47.45 61.79 47.45C62.278 47.45 62.746 47.6438 63.0911 47.9889C63.4361 48.334 63.6299 48.8019 63.6299 49.2899V49.2899Z" fill="#C177F7"/>
<path d="M101.55 139H76.55C76.0196 139 75.5108 139.211 75.1357 139.586C74.7607 139.961 74.55 140.47 74.55 141C74.55 141.53 74.7607 142.039 75.1357 142.414C75.5108 142.789 76.0196 143 76.55 143H101.55C102.08 143 102.589 142.789 102.964 142.414C103.339 142.039 103.55 141.53 103.55 141C103.55 140.47 103.339 139.961 102.964 139.586C102.589 139.211 102.08 139 101.55 139Z" fill="#66B8F9"/>
<path d="M62.54 139H37.54C37.0096 139 36.5008 139.211 36.1257 139.586C35.7507 139.961 35.54 140.47 35.54 141C35.54 141.53 35.7507 142.039 36.1257 142.414C36.5008 142.789 37.0096 143 37.54 143H62.54C63.0705 143 63.579 142.789 63.9541 142.414C64.3292 142.039 64.54 141.53 64.54 141C64.54 140.47 64.3292 139.961 63.9541 139.586C63.579 139.211 63.0705 139 62.54 139Z" fill="white"/>
<path d="M140.56 139H115.56C115.03 139 114.521 139.211 114.146 139.586C113.771 139.961 113.56 140.47 113.56 141C113.56 141.53 113.771 142.039 114.146 142.414C114.521 142.789 115.03 143 115.56 143H140.56C141.09 143 141.599 142.789 141.974 142.414C142.349 142.039 142.56 141.53 142.56 141C142.56 140.47 142.349 139.961 141.974 139.586C141.599 139.211 141.09 139 140.56 139Z" fill="white"/>
<path d="M14.8198 170.35H161.57C165.318 170.345 168.912 168.853 171.562 166.203C174.213 163.552 175.705 159.959 175.71 156.21C175.71 156.21 175.71 152.47 175.71 152.01C175.708 151.527 175.55 151.057 175.26 150.67L158.99 128.34V46.25C158.985 43.9319 158.061 41.7104 156.421 40.0722C154.781 38.434 152.558 37.5126 150.24 37.51H141.43C140.899 37.51 140.391 37.7207 140.016 38.0958C139.641 38.4708 139.43 38.9796 139.43 39.51C139.43 40.0404 139.641 40.5491 140.016 40.9242C140.391 41.2993 140.899 41.51 141.43 41.51H150.24C151.498 41.51 152.705 42.0091 153.595 42.8977C154.486 43.7863 154.987 44.992 154.99 46.25V127H19.8799V46.25C19.8825 44.992 20.3841 43.7863 21.2747 42.8977C22.1652 42.0091 23.3718 41.51 24.6299 41.51H34.96C35.4904 41.51 35.9992 41.2993 36.3743 40.9242C36.7493 40.5491 36.96 40.0404 36.96 39.51C36.96 38.9796 36.7493 38.4708 36.3743 38.0958C35.9992 37.7207 35.4904 37.51 34.96 37.51H24.6299C22.3118 37.5126 20.0893 38.434 18.4492 40.0722C16.8091 41.7104 15.8852 43.9319 15.8799 46.25V128.39C15.8799 128.39 1.29982 150.39 1.06982 150.74C0.829599 151.132 0.695333 151.58 0.679932 152.04V156.21C0.685222 159.959 2.17677 163.552 4.82739 166.203C7.47801 168.853 11.0713 170.345 14.8198 170.35ZM171.71 156.21C171.707 158.899 170.638 161.476 168.737 163.377C166.836 165.278 164.258 166.347 161.57 166.35H14.8198C12.1313 166.347 9.55388 165.278 7.65283 163.377C5.75179 161.476 4.68258 158.899 4.67993 156.21V153.93H69.3298L72.1399 158.93C72.3169 159.237 72.5722 159.491 72.8796 159.667C73.1871 159.842 73.5358 159.933 73.8899 159.93H102.5C102.854 159.933 103.203 159.842 103.51 159.667C103.817 159.491 104.073 159.237 104.25 158.93L107.06 153.93H171.71V156.21ZM155.97 131L169.77 149.93H105.88C105.527 149.929 105.181 150.02 104.875 150.196C104.57 150.372 104.316 150.625 104.14 150.93L101.33 155.93H75.0601L72.25 150.93C72.0738 150.625 71.82 150.372 71.5144 150.196C71.2088 150.02 70.8624 149.929 70.51 149.93H6.40991L18.96 131H155.97Z" fill="white"/>
</svg>
