<?xml version="1.0" encoding="UTF-8"?>
<!-- Generator: Adobe Illustrator 27.7.0, SVG Export Plug-In . SVG Version: 6.00 Build 0)  -->
<svg xmlns="http://www.w3.org/2000/svg" xmlns:xlink="http://www.w3.org/1999/xlink" width="176" height="176" version="1.1" id="Layer_1" x="0px" y="0px" viewBox="0 0 153 153" style="enable-background:new 0 0 153 153;" xml:space="preserve">
<style type="text/css">
	.st0{fill:#FFFFFF;}
	.st1{fill:#66B3F4;}
	.st2{fill:#BC77F2;}
	.st3{fill:none;stroke:#FFFFFF;stroke-width:4;stroke-linecap:round;stroke-miterlimit:10;}
	.st4{fill:none;stroke:#FFFFFF;stroke-width:4;stroke-linecap:round;stroke-linejoin:round;stroke-miterlimit:10;}
	.st5{fill:none;stroke:#66B3F4;stroke-width:4;stroke-linecap:round;stroke-miterlimit:10;}
	.st6{fill:none;stroke:#BC77F2;stroke-width:4;stroke-linecap:round;stroke-linejoin:round;stroke-miterlimit:10;}
	.st7{fill:none;stroke:#66B3F4;stroke-width:4;stroke-linecap:round;stroke-linejoin:round;stroke-miterlimit:10;}
	.st8{fill:none;stroke:#FFFFFF;stroke-width:4;stroke-miterlimit:10;}
	.st9{fill:none;stroke:#66B3F4;stroke-width:2;stroke-linecap:round;stroke-linejoin:round;stroke-miterlimit:10;}
	.st10{fill-rule:evenodd;clip-rule:evenodd;fill:#66B3F4;}
	.st11{fill-rule:evenodd;clip-rule:evenodd;fill:#FFFFFF;}
	.st12{fill-rule:evenodd;clip-rule:evenodd;fill:#BC77F2;}
</style>
<g>
	<path class="st10" d="M81.2,111.5L81.2,111.5L81.2,111.5c0.4-0.3,0.7-0.6,1-0.9l0,0c1.5-1.5,2.5-3.6,2.5-6c0-2.3-0.9-4.5-2.5-6v0   c-1.5-1.5-3.6-2.5-6-2.5c-2.3,0-4.5,0.9-6,2.5l0,0c-1.5,1.5-2.5,3.6-2.5,6c0,2.3,0.9,4.5,2.5,6v0c0.3,0.3,0.6,0.6,0.9,0.8l0.1,0   l0,0c1.4,1,3.1,1.6,5,1.6C78.1,113.1,79.8,112.5,81.2,111.5L81.2,111.5z M120.7,92.8c3.3,0,6.2,1.3,8.4,3.5l0,0   c2.1,2.1,3.5,5.1,3.5,8.4c0,2.9-1.1,5.6-2.9,7.7l0.9,0.4c6.6,2.9,10,4.4,10.4,18.4c0,0.6-0.1,1.1-0.3,1.6c-0.2,0.5-0.5,0.9-0.9,1.4   c-0.4,0.4-0.8,0.7-1.3,0.9c-0.5,0.2-1,0.3-1.6,0.3h-32.3c-0.5,0-1.1-0.1-1.6-0.3c-0.5-0.2-0.9-0.5-1.3-0.9   c-0.4-0.4-0.7-0.9-0.9-1.4c-0.2-0.5-0.3-1-0.3-1.6c0.4-14,3.8-15.5,10.4-18.4l0.9-0.4c-1.8-2.1-2.9-4.8-2.9-7.7   c0-3.3,1.3-6.2,3.5-8.4l0,0C114.4,94.1,117.4,92.8,120.7,92.8L120.7,92.8z M126.8,114.7c-1.8,1.1-3.9,1.7-6.1,1.7   c-2.2,0-4.3-0.6-6.1-1.7c-0.9,0.4-1.6,0.8-2.4,1.1c-5.3,2.3-8,3.6-8.4,15.4c0,0.1,0,0.2,0,0.3v0c0,0.1,0.1,0.2,0.2,0.2   c0.1,0.1,0.2,0.1,0.2,0.2c0.1,0,0.2,0,0.3,0h32.3c0.1,0,0.2,0,0.3,0c0.1,0,0.2-0.1,0.2-0.2c0.1-0.1,0.1-0.2,0.2-0.2   c0-0.1,0-0.2,0-0.3c-0.3-11.8-3.1-13-8.4-15.4C128.4,115.5,127.7,115.1,126.8,114.7L126.8,114.7z M126.6,98.6   c-1.5-1.5-3.6-2.5-6-2.5c-2.3,0-4.5,0.9-6,2.5l0,0c-1.5,1.5-2.5,3.6-2.5,6c0,2.3,0.9,4.5,2.5,6v0c0.3,0.3,0.6,0.6,0.9,0.8l0.1,0   l0,0c1.4,1,3.1,1.6,5,1.6c1.9,0,3.6-0.6,5-1.6l0,0l0.1,0c0.3-0.2,0.6-0.5,0.9-0.8l0,0c1.5-1.5,2.5-3.6,2.5-6   C129.1,102.3,128.2,100.2,126.6,98.6L126.6,98.6L126.6,98.6z M85.2,112.3l0.9,0.4c6.6,2.9,10,4.4,10.4,18.4c0,0.6-0.1,1.1-0.3,1.6   l0,0.1c-0.2,0.5-0.5,0.9-0.8,1.2c-0.4,0.4-0.8,0.7-1.3,0.9c-0.5,0.2-1,0.3-1.6,0.3H60.1c-0.5,0-1.1-0.1-1.6-0.3   c-0.5-0.2-0.9-0.5-1.3-0.9c-0.4-0.4-0.7-0.9-0.9-1.4c-0.2-0.5-0.3-1-0.3-1.6c0.4-14,3.8-15.5,10.4-18.4l0.9-0.4   c-1.8-2.1-2.9-4.8-2.9-7.7c0-3.3,1.3-6.2,3.5-8.4l0,0c2.1-2.1,5.1-3.5,8.4-3.5c3.3,0,6.2,1.3,8.4,3.5l0,0c2.1,2.1,3.5,5.1,3.5,8.4   C88.1,107.6,87,110.3,85.2,112.3L85.2,112.3z M70.1,114.7c-0.9,0.4-1.6,0.8-2.4,1.1c-5.3,2.3-8,3.6-8.4,15.4c0,0.1,0,0.2,0,0.3   c0,0.1,0.1,0.2,0.2,0.2c0.1,0.1,0.2,0.1,0.2,0.2c0.1,0,0.2,0,0.3,0h32.3c0.1,0,0.2,0,0.3,0c0.1,0,0.2-0.1,0.2-0.2   c0.1-0.1,0.1-0.1,0.1-0.2l0,0c0-0.1,0-0.2,0-0.3c-0.3-11.8-3.1-13-8.4-15.4c-0.7-0.3-1.5-0.7-2.4-1.1c-1.8,1.1-3.9,1.7-6.1,1.7   C74,116.5,71.9,115.8,70.1,114.7z"></path>
	<path class="st11" d="M34.6,131.9v-30c0-0.9,0.8-1.7,1.7-1.7c0.9,0,1.7,0.8,1.7,1.7v30h9.4V60.7c0-1.7,0.7-3.2,1.7-4.3   c1.1-1.1,2.6-1.8,4.3-1.8h13.5h12.8v-6.4H66.9H21.8c-1.7,0-3.3,0.7-4.5,1.9h0c-1.1,1.1-1.9,2.7-1.9,4.5v35h6.4V60.8   c0-0.9,0.8-1.7,1.7-1.7c0.9,0,1.7,0.8,1.7,1.7v71.1H34.6L34.6,131.9z M21.8,92.9h-8c-0.9,0-1.7-0.8-1.7-1.7V54.5   c0-2.7,1.1-5.1,2.8-6.8l0,0c1.8-1.8,4.2-2.8,6.8-2.8h43.4V28.6c0-0.9,0.8-1.7,1.7-1.7h66.2c0.9,0,1.7,0.8,1.7,1.7v48.2   c0,0.9-0.8,1.7-1.7,1.7h-31.4v10.1c0,0.9-0.8,1.7-1.7,1.7c-0.9,0-1.7-0.8-1.7-1.7V78.5H66.9c-0.9,0-1.7-0.8-1.7-1.7V57.9H53.4   c-0.7,0-1.4,0.3-1.9,0.8c-0.5,0.5-0.8,1.2-0.8,2v72.9c0,0.9-0.8,1.7-1.7,1.7H36.3H23.5c-0.9,0-1.7-0.8-1.7-1.7V92.9L21.8,92.9z    M68.6,44.8V30.3h62.8v44.8H100H68.6V57.9h12.8c0.9,0,1.7-0.8,1.7-1.7v-9.7c0-0.9-0.8-1.7-1.7-1.7H68.6L68.6,44.8z M36.3,21.1   c-2.5,0-4.8,1-6.5,2.7c-1.7,1.7-2.7,4-2.7,6.5c0,2.5,1,4.8,2.7,6.5c1.7,1.7,4,2.7,6.5,2.7c2.5,0,4.8-1,6.5-2.7   c1.7-1.7,2.7-4,2.7-6.5c0-2.5-1-4.8-2.7-6.5C41.1,22.1,38.8,21.1,36.3,21.1L36.3,21.1z M27.4,21.4c-2.3,2.3-3.7,5.4-3.7,8.9   c0,3.5,1.4,6.6,3.7,8.9c2.3,2.3,5.4,3.7,8.9,3.7c3.5,0,6.6-1.4,8.9-3.7c2.3-2.3,3.7-5.4,3.7-8.9c0-3.5-1.4-6.6-3.7-8.9   c-2.3-2.3-5.4-3.7-8.9-3.7C32.8,17.7,29.7,19.1,27.4,21.4z"></path>
	<path class="st12" d="M92.7,43.7c-0.9,0-1.7-0.8-1.7-1.7c0-0.9,0.8-1.7,1.7-1.7h28.8c0.9,0,1.7,0.8,1.7,1.7c0,0.9-0.8,1.7-1.7,1.7   H92.7L92.7,43.7z M92.7,65.1c-0.9,0-1.7-0.8-1.7-1.7c0-0.9,0.8-1.7,1.7-1.7h28.8c0.9,0,1.7,0.8,1.7,1.7c0,0.9-0.8,1.7-1.7,1.7H92.7   L92.7,65.1z M92.7,54.4c-0.9,0-1.7-0.8-1.7-1.7c0-0.9,0.8-1.7,1.7-1.7h28.8c0.9,0,1.7,0.8,1.7,1.7c0,0.9-0.8,1.7-1.7,1.7H92.7z"></path>
</g>
</svg>
