<svg width="177" height="164" viewBox="0 0 177 164" fill="none" xmlns="http://www.w3.org/2000/svg">
<path d="M171.24 121.86L122.24 80.35C121.617 79.7748 120.807 79.4445 119.96 79.42C119.604 79.4179 119.25 79.4866 118.921 79.6223C118.591 79.7579 118.292 79.9576 118.04 80.2099C117.726 80.5486 117.483 80.9473 117.327 81.3821C117.17 81.8168 117.103 82.2787 117.13 82.7399L117.46 146.91C117.46 149.18 118.95 150.22 120.32 150.22C121.165 150.196 121.974 149.869 122.6 149.3L135.6 138.49L146.18 161.19C146.677 162.247 147.572 163.065 148.67 163.464C149.769 163.863 150.98 163.812 152.04 163.32L161.59 158.86C162.114 158.616 162.585 158.271 162.976 157.845C163.367 157.419 163.67 156.92 163.867 156.376C164.065 155.833 164.154 155.256 164.129 154.679C164.103 154.101 163.965 153.534 163.72 153.01L153.19 130.31L169.8 127.31C170.421 127.266 171.014 127.03 171.495 126.634C171.976 126.238 172.321 125.702 172.484 125.101C172.647 124.5 172.618 123.863 172.402 123.278C172.187 122.694 171.794 122.191 171.28 121.84L171.24 121.86ZM149.88 126.86C149.583 126.909 149.302 127.025 149.056 127.198C148.81 127.371 148.606 127.597 148.46 127.86C148.324 128.135 148.253 128.438 148.253 128.745C148.253 129.052 148.324 129.355 148.46 129.63L160.15 154.69C160.172 154.739 160.184 154.791 160.184 154.845C160.184 154.898 160.172 154.951 160.15 155C160.134 155.05 160.107 155.097 160.071 155.135C160.034 155.173 159.99 155.202 159.94 155.22L150.38 159.68C150.327 159.693 150.272 159.693 150.22 159.68C150.143 159.681 150.067 159.661 150.001 159.62C149.935 159.579 149.883 159.52 149.85 159.45L138.16 134.39C138.032 134.113 137.841 133.868 137.604 133.676C137.366 133.483 137.088 133.348 136.79 133.28C136.645 133.249 136.498 133.232 136.35 133.23C135.881 133.232 135.428 133.398 135.07 133.7L121.5 145L121.19 84.6199L167.24 123.68L149.88 126.86Z" fill="#C177F7"/>
<path d="M23.1099 100.46H70.8298C73.6191 100.571 76.3674 101.17 78.95 102.23L85.3499 105.17C87.2484 105.956 89.3815 105.956 91.28 105.17L97.6899 102.23C100.272 101.168 103.021 100.569 105.81 100.46H112.88C113.41 100.46 113.919 100.249 114.294 99.8742C114.669 99.4991 114.88 98.9904 114.88 98.46C114.88 97.9295 114.669 97.4208 114.294 97.0458C113.919 96.6707 113.41 96.46 112.88 96.46H105.81C102.443 96.5675 99.1247 97.2929 96.02 98.6L90.3198 101.21V9.51999C90.6607 9.43444 90.995 9.32415 91.3198 9.18999L97.73 6.24998C100.31 5.18349 103.06 4.58417 105.85 4.47998H153.56C153.76 4.47998 153.957 4.5193 154.142 4.59569C154.326 4.67208 154.494 4.78404 154.635 4.92519C154.776 5.06633 154.888 5.23389 154.964 5.4183C155.041 5.60272 155.08 5.80038 155.08 5.99998V95C155.077 95.4014 154.916 95.7854 154.631 96.0683C154.346 96.3512 153.961 96.51 153.56 96.51H150.07C149.539 96.51 149.031 96.7207 148.656 97.0958C148.281 97.4709 148.07 97.9796 148.07 98.51C148.07 99.0404 148.281 99.5491 148.656 99.9242C149.031 100.299 149.539 100.51 150.07 100.51H153.56C155.022 100.51 156.425 99.9298 157.46 98.8967C158.495 97.8637 159.077 96.4622 159.08 95V5.99998C159.077 4.5368 158.495 3.1343 157.46 2.09967C156.426 1.06504 155.023 0.482624 153.56 0.47998H105.85C102.484 0.589002 99.1668 1.31081 96.0601 2.60999L89.6499 5.54999C88.8105 5.83723 87.8995 5.83723 87.0601 5.54999L80.6499 2.60999C77.5464 1.31178 74.2322 0.589988 70.8699 0.47998H23.1499C21.6876 0.482629 20.2862 1.06537 19.2532 2.10028C18.2201 3.13519 17.6399 4.53772 17.6399 5.99998V95C17.653 96.4457 18.2338 97.8284 19.2571 98.8498C20.2804 99.8713 21.6641 100.45 23.1099 100.46V100.46ZM21.5999 5.99998C21.5998 5.59858 21.7586 5.21347 22.0415 4.9287C22.3244 4.64393 22.7085 4.48262 23.1099 4.47998H70.8298C73.6197 4.58627 76.3689 5.18552 78.95 6.24998L85.3499 9.17998C85.6722 9.32328 86.0069 9.43709 86.3499 9.51999V101.21L80.6399 98.6C77.5384 97.294 74.2234 96.5687 70.8599 96.46H23.1399C22.7402 96.4574 22.3578 96.2974 22.0752 96.0148C21.7926 95.7322 21.6325 95.3497 21.6299 94.95L21.5999 5.99998Z" fill="white"/>
<path d="M168.19 10.5701H164.19C163.66 10.5701 163.151 10.7808 162.776 11.1559C162.401 11.5309 162.19 12.0396 162.19 12.5701C162.19 13.1005 162.401 13.6092 162.776 13.9843C163.151 14.3594 163.66 14.5701 164.19 14.5701H168.19C169.214 14.5701 170.196 14.9767 170.919 15.7006C171.643 16.4245 172.05 17.4063 172.05 18.4301V106.27C172.05 107.294 171.643 108.276 170.919 108.999C170.196 109.723 169.214 110.13 168.19 110.13H167.7C167.17 110.13 166.661 110.341 166.286 110.716C165.911 111.091 165.7 111.6 165.7 112.13C165.7 112.66 165.911 113.169 166.286 113.544C166.661 113.919 167.17 114.13 167.7 114.13H168.19C170.274 114.127 172.271 113.298 173.745 111.825C175.218 110.352 176.047 108.354 176.05 106.27V18.4301C176.047 16.3463 175.218 14.3486 173.745 12.8751C172.271 11.4017 170.274 10.5727 168.19 10.5701Z" fill="white"/>
<path d="M74.1899 114.13C74.4699 114.13 74.9399 114.53 75.1899 115.13C75.9221 117.076 77.2286 118.753 78.936 119.939C80.6435 121.125 82.6711 121.763 84.75 121.77H91.95C94.0278 121.764 96.0545 121.126 97.7605 119.939C99.4665 118.753 100.771 117.076 101.5 115.13C101.72 114.55 102.18 114.13 102.5 114.13H111.73C112.26 114.13 112.769 113.919 113.144 113.544C113.519 113.169 113.73 112.66 113.73 112.13C113.73 111.6 113.519 111.091 113.144 110.716C112.769 110.341 112.26 110.13 111.73 110.13H102.5C101.445 110.182 100.431 110.551 99.5901 111.19C98.7494 111.829 98.1219 112.708 97.79 113.71C97.3423 114.886 96.5479 115.898 95.5122 116.612C94.4765 117.327 93.2482 117.709 91.99 117.71H84.79C83.5305 117.71 82.3006 117.328 81.2632 116.613C80.2257 115.899 79.4295 114.887 78.98 113.71C78.6498 112.706 78.023 111.825 77.1821 111.184C76.3413 110.543 75.326 110.172 74.27 110.12H8.53003C7.50711 110.117 6.52679 109.71 5.80347 108.987C5.08015 108.263 4.67256 107.283 4.66992 106.26V18.4301C4.67256 17.4071 5.08015 16.4269 5.80347 15.7036C6.52679 14.9802 7.50711 14.5727 8.53003 14.5701H12.3499C12.8803 14.5701 13.3891 14.3594 13.7642 13.9843C14.1392 13.6092 14.3499 13.1005 14.3499 12.5701C14.3499 12.0396 14.1392 11.5309 13.7642 11.1559C13.3891 10.7808 12.8803 10.5701 12.3499 10.5701H8.53003C6.44624 10.5727 4.44856 11.4017 2.9751 12.8751C1.50163 14.3486 0.672568 16.3463 0.669922 18.4301V106.27C0.672568 108.354 1.50163 110.352 2.9751 111.825C4.44856 113.298 6.44624 114.127 8.53003 114.13H74.1899Z" fill="white"/>
<path d="M37.97 27.54H70.97C71.5004 27.54 72.009 27.3293 72.384 26.9543C72.7591 26.5792 72.97 26.0705 72.97 25.54C72.97 25.0096 72.7591 24.5009 72.384 24.1258C72.009 23.7508 71.5004 23.54 70.97 23.54H37.97C37.4395 23.54 36.9307 23.7508 36.5557 24.1258C36.1806 24.5009 35.97 25.0096 35.97 25.54C35.97 26.0705 36.1806 26.5792 36.5557 26.9543C36.9307 27.3293 37.4395 27.54 37.97 27.54Z" fill="white"/>
<path d="M37.97 48H70.97C71.5004 48 72.009 47.7893 72.384 47.4142C72.7591 47.0391 72.97 46.5304 72.97 46C72.97 45.4696 72.7591 44.9609 72.384 44.5858C72.009 44.2107 71.5004 44 70.97 44H37.97C37.4395 44 36.9307 44.2107 36.5557 44.5858C36.1806 44.9609 35.97 45.4696 35.97 46C35.97 46.5304 36.1806 47.0391 36.5557 47.4142C36.9307 47.7893 37.4395 48 37.97 48Z" fill="white"/>
<path d="M37.97 68.49H70.97C71.5004 68.49 72.009 68.2793 72.384 67.9042C72.7591 67.5291 72.97 67.0204 72.97 66.49C72.97 65.9596 72.7591 65.4508 72.384 65.0758C72.009 64.7007 71.5004 64.49 70.97 64.49H37.97C37.4395 64.49 36.9307 64.7007 36.5557 65.0758C36.1806 65.4508 35.97 65.9596 35.97 66.49C35.97 67.0204 36.1806 67.5291 36.5557 67.9042C36.9307 68.2793 37.4395 68.49 37.97 68.49Z" fill="#66B8F9"/>
<path d="M138.66 23.54H105.66C105.129 23.54 104.621 23.7508 104.246 24.1258C103.871 24.5009 103.66 25.0096 103.66 25.54C103.66 26.0705 103.871 26.5792 104.246 26.9543C104.621 27.3293 105.129 27.54 105.66 27.54H138.66C139.19 27.54 139.699 27.3293 140.074 26.9543C140.449 26.5792 140.66 26.0705 140.66 25.54C140.66 25.0096 140.449 24.5009 140.074 24.1258C139.699 23.7508 139.19 23.54 138.66 23.54Z" fill="white"/>
<path d="M138.66 44H105.66C105.129 44 104.621 44.2107 104.246 44.5858C103.871 44.9609 103.66 45.4696 103.66 46C103.66 46.5304 103.871 47.0391 104.246 47.4142C104.621 47.7893 105.129 48 105.66 48H138.66C139.19 48 139.699 47.7893 140.074 47.4142C140.449 47.0391 140.66 46.5304 140.66 46C140.66 45.4696 140.449 44.9609 140.074 44.5858C139.699 44.2107 139.19 44 138.66 44Z" fill="white"/>
<path d="M138.66 64.49H105.66C105.129 64.49 104.621 64.7007 104.246 65.0758C103.871 65.4508 103.66 65.9596 103.66 66.49C103.66 67.0204 103.871 67.5291 104.246 67.9042C104.621 68.2793 105.129 68.49 105.66 68.49H138.66C139.19 68.49 139.699 68.2793 140.074 67.9042C140.449 67.5291 140.66 67.0204 140.66 66.49C140.66 65.9596 140.449 65.4508 140.074 65.0758C139.699 64.7007 139.19 64.49 138.66 64.49Z" fill="white"/>
</svg>
