<?xml version="1.0" encoding="utf-8"?><svg viewBox="0 0 180 153" fill="none" xmlns="http://www.w3.org/2000/svg">
<g clip-path="url(#clip0)">
<path d="M169.43 58.27L169.38 66.71C166.65 67.55 164.65 70.09 164.63 73.09C164.62 74.88 165.31 76.57 166.57 77.85C167.83 79.12 169.51 79.83 171.3 79.84C175.02 79.84 178.03 76.85 178.05 73.17C178.06 71.38 177.37 69.69 176.11 68.41C175.34 67.63 174.4 67.06 173.37 66.74L173.42 58.3C173.43 57.2 172.54 56.3 171.43 56.29C170.34 56.28 169.44 57.17 169.43 58.27ZM171.23 75.84C170.54 75.81 169.9 75.53 169.42 75.04C168.91 74.53 168.63 73.84 168.64 73.12C168.65 71.63 169.86 70.42 171.37 70.42C172.1 70.42 172.77 70.71 173.28 71.22C173.79 71.73 174.07 72.42 174.06 73.14C174.05 74.59 172.9 75.77 171.47 75.83C171.43 75.84 171.26 75.84 171.23 75.84Z" fill="#050B27"/>
<path d="M176.89 82.53C176.6 81.46 175.49 80.85 174.43 81.14C173.37 81.43 172.74 82.54 173.04 83.6L175.63 93.03L166.83 92.97L169.54 83.59C169.85 82.53 169.24 81.42 168.17 81.11C167.11 80.8 166 81.41 165.69 82.48L162.93 92.01L162.9 92.13C162.62 93.36 162.89 94.59 163.62 95.52C164.36 96.45 165.5 96.98 166.76 96.99L175.62 97.04C175.63 97.04 175.64 97.04 175.65 97.04C176.9 97.04 178.04 96.52 178.78 95.61C179.53 94.69 179.81 93.46 179.55 92.23L176.89 82.53Z" fill="#050B27"/>
<path d="M140.12 13.84C138.36 12.09 135.21 10.38 132.78 9.87L87.07 0.16C86.58 0.05 86.12 0 85.72 0C83.84 0 83.17 1.13 82.96 1.62C82.62 2.44 82.57 3.76 84.22 5.41L96.15 17.29L89.44 29.69C88.57 31.29 88.06 34.12 88.82 36.22C92.09 45.36 100.03 53.88 110.6 59.6C118.3 63.77 126.49 65.95 134.03 65.95C136.83 65.95 139.54 65.65 142.1 65.04C144.27 64.52 146.36 62.54 147.23 60.95L153.93 48.57L170.4 52.07C170.89 52.17 171.34 52.23 171.75 52.23C173.63 52.23 174.31 51.1 174.51 50.61C174.85 49.79 174.9 48.47 173.25 46.83L140.12 13.84ZM143.7 59.03C143.23 59.9 141.97 60.94 141.16 61.14C132.78 63.14 122.06 61.25 112.5 56.07C102.93 50.89 95.49 42.96 92.58 34.86C92.3 34.08 92.48 32.45 92.96 31.59L99.11 20.23L117.34 38.38C119.1 40.13 122.25 41.84 124.68 42.35L149.84 47.69L143.7 59.03ZM125.51 38.43C123.86 38.08 121.36 36.72 120.16 35.53L89.19 4.7L131.95 13.78C133.6 14.13 136.1 15.49 137.3 16.68L168.28 47.52L125.51 38.43Z" fill="#050B27"/>
<path d="M67.95 64.97C67.9 63.44 67.83 61.54 66.48 60.19C65.13 58.84 63.23 58.77 61.7 58.72C60.94 58.69 60.15 58.67 59.72 58.49C59.34 58.33 58.76 57.79 58.26 57.31C57.13 56.24 55.71 54.91 53.73 54.91C51.75 54.91 50.34 56.24 49.21 57.31C48.7 57.79 48.13 58.33 47.75 58.49C47.32 58.67 46.54 58.7 45.77 58.72C44.24 58.77 42.34 58.84 40.99 60.19C39.64 61.54 39.57 63.44 39.52 64.97C39.49 65.73 39.46 66.52 39.29 66.95C39.13 67.33 38.59 67.91 38.11 68.41C37.04 69.54 35.71 70.96 35.71 72.93C35.71 74.91 37.04 76.32 38.11 77.45C38.59 77.96 39.13 78.53 39.29 78.91C39.47 79.34 39.5 80.13 39.52 80.89C39.57 82.42 39.64 84.32 40.99 85.67C42.34 87.02 44.24 87.09 45.77 87.14C46.53 87.17 47.32 87.2 47.75 87.37C48.13 87.53 48.71 88.07 49.21 88.55C50.34 89.62 51.75 90.95 53.73 90.95C55.71 90.95 57.12 89.62 58.25 88.55C58.76 88.07 59.33 87.53 59.71 87.37C60.14 87.19 60.92 87.16 61.69 87.14C63.22 87.09 65.12 87.02 66.47 85.67C67.82 84.32 67.89 82.42 67.94 80.89C67.97 80.13 68 79.34 68.17 78.91C68.33 78.53 68.87 77.95 69.35 77.45C70.42 76.32 71.75 74.91 71.75 72.93C71.75 70.95 70.42 69.54 69.35 68.41C68.87 67.9 68.33 67.33 68.17 66.95C68.01 66.52 67.98 65.73 67.95 64.97ZM66.45 74.72C65.74 75.48 64.93 76.34 64.49 77.39C64.04 78.48 63.99 79.69 63.95 80.76C63.92 81.46 63.88 82.62 63.65 82.86C63.41 83.1 62.25 83.14 61.55 83.16C60.48 83.2 59.28 83.24 58.18 83.7C57.12 84.14 56.26 84.95 55.51 85.66C54.96 86.18 54.12 86.97 53.73 86.97C53.34 86.97 52.5 86.18 51.95 85.66C51.19 84.95 50.33 84.14 49.28 83.7C48.19 83.25 46.98 83.2 45.91 83.16C45.21 83.13 44.05 83.09 43.81 82.86C43.57 82.62 43.53 81.46 43.51 80.76C43.47 79.69 43.43 78.49 42.98 77.39C42.54 76.33 41.73 75.47 41.02 74.72C40.5 74.17 39.71 73.33 39.71 72.94C39.71 72.55 40.5 71.71 41.02 71.16C41.73 70.4 42.54 69.54 42.98 68.49C43.43 67.4 43.48 66.19 43.51 65.12C43.54 64.42 43.58 63.26 43.81 63.02C44.05 62.78 45.21 62.74 45.91 62.72C46.98 62.68 48.18 62.64 49.28 62.18C50.34 61.74 51.2 60.93 51.95 60.22C52.5 59.7 53.34 58.91 53.73 58.91C54.12 58.91 54.96 59.7 55.51 60.22C56.27 60.93 57.13 61.74 58.18 62.18C59.27 62.63 60.48 62.68 61.55 62.71C62.25 62.73 63.41 62.78 63.65 63.01C63.89 63.25 63.93 64.41 63.95 65.11C63.99 66.18 64.03 67.38 64.49 68.48C64.93 69.54 65.74 70.4 66.45 71.15C66.97 71.7 67.76 72.54 67.76 72.93C67.76 73.33 66.97 74.17 66.45 74.72Z" fill="#C177F7"/>
<path d="M53.73 64.23C48.91 64.23 44.99 68.15 44.99 72.97C44.99 77.79 48.91 81.71 53.73 81.71C58.55 81.71 62.47 77.79 62.47 72.97C62.46 68.15 58.55 64.23 53.73 64.23ZM53.73 77.7C51.12 77.7 48.99 75.58 48.99 72.96C48.99 70.35 51.11 68.22 53.73 68.22C56.34 68.22 58.47 70.34 58.47 72.96C58.46 75.58 56.34 77.7 53.73 77.7Z" fill="#050B27"/>
<path d="M157.91 134.36C157.63 133.97 143.25 114.26 143.25 114.26V70.44C143.25 69.34 142.35 68.44 141.25 68.44C140.15 68.44 139.25 69.34 139.25 70.44V112.91H17.72V40.24C17.72 37.99 19.55 36.15 21.81 36.15H84.26C85.36 36.15 86.26 35.25 86.26 34.15C86.26 33.05 85.36 32.15 84.26 32.15H21.81C17.35 32.15 13.72 35.78 13.72 40.24V114.31C13.72 114.31 0.62 134.08 0.39 134.42C0.16 134.76 0 135.28 0 135.72C0 136.16 0 139.48 0 139.48C0 146.62 5.81 152.44 12.96 152.44H145.39C152.53 152.44 158.35 146.63 158.35 139.48C158.35 139.48 158.35 136.13 158.35 135.69C158.34 135.25 158.2 134.75 157.91 134.36ZM140.24 116.91L152.41 133.6H95.13C94.39 133.6 93.72 134 93.37 134.65L90.89 139.25H67.45L64.97 134.65C64.62 134 63.95 133.6 63.21 133.6H5.73L16.8 116.91H140.24ZM154.34 139.47C154.34 144.41 150.32 148.43 145.38 148.43H12.96C8.02 148.43 4 144.41 4 139.47V137.6H62.02L64.5 142.2C64.85 142.85 65.52 143.25 66.26 143.25H92.09C92.83 143.25 93.5 142.85 93.85 142.2L96.33 137.6H154.35V139.47H154.34Z" fill="#050B27"/>
<path d="M90.19 46.62H33.22C29.91 46.62 27.22 49.31 27.22 52.62V98.71C27.22 102.02 29.91 104.71 33.22 104.71H124.09C127.4 104.71 130.09 102.02 130.09 98.71V71.98C130.09 70.88 129.19 69.98 128.09 69.98C126.99 69.98 126.09 70.88 126.09 71.98V98.71C126.09 99.81 125.19 100.71 124.09 100.71H33.22C32.12 100.71 31.22 99.81 31.22 98.71V52.62C31.22 51.52 32.12 50.62 33.22 50.62H90.19C91.29 50.62 92.19 49.72 92.19 48.62C92.19 47.52 91.29 46.62 90.19 46.62Z" fill="#050B27"/>
<path d="M112.07 75.67H83.46C82.36 75.67 81.46 76.57 81.46 77.67C81.46 78.77 82.36 79.67 83.46 79.67H112.07C113.17 79.67 114.07 78.77 114.07 77.67C114.07 76.57 113.18 75.67 112.07 75.67Z" fill="#66B8F9"/>
<path d="M112.07 85.02H83.46C82.36 85.02 81.46 85.92 81.46 87.02C81.46 88.12 82.36 89.02 83.46 89.02H112.07C113.17 89.02 114.07 88.12 114.07 87.02C114.07 85.92 113.18 85.02 112.07 85.02Z" fill="#66B8F9"/>
</g>
<defs>
<clipPath id="clip0">
<rect width="179.66" height="152.43" fill="white"/>
</clipPath>
</defs>
</svg>
