<?xml version="1.0" encoding="utf-8"?><svg viewBox="0 0 176 150" fill="none" xmlns="http://www.w3.org/2000/svg">
<g clip-path="url(#clip0)">
<path d="M14.14 149.76H160.89C168.69 149.76 175.03 143.42 175.03 135.62C175.03 135.62 175.03 131.88 175.03 131.42C175.03 130.97 174.89 130.5 174.59 130.07C174.28 129.65 158.31 107.75 158.31 107.75V25.67C158.31 20.85 154.39 16.93 149.57 16.93H147.82C146.72 16.93 145.82 17.83 145.82 18.93C145.82 20.03 146.72 20.93 147.82 20.93H149.57C152.19 20.93 154.31 23.06 154.31 25.67V106.41H19.2V25.67C19.2 23.05 21.33 20.93 23.94 20.93H74.17C75.27 20.93 76.17 20.03 76.17 18.93C76.17 17.83 75.27 16.93 74.17 16.93H23.95C19.13 16.93 15.21 20.85 15.21 25.67V107.81C15.21 107.81 0.63 129.82 0.39 130.16C0.16 130.49 0 131.07 0 131.46C0 131.85 0 135.63 0 135.63C0 143.42 6.34 149.76 14.14 149.76ZM171.03 135.62C171.03 141.21 166.48 145.76 160.89 145.76H14.14C8.55 145.76 4 141.21 4 135.62V133.34H68.65L71.46 138.36C71.81 138.99 72.48 139.38 73.21 139.38H101.83C102.55 139.38 103.22 138.99 103.58 138.36L106.39 133.34H171.04V135.62H171.03ZM155.29 110.41L169.09 129.34H105.2C104.48 129.34 103.81 129.73 103.45 130.36L100.64 135.38H74.38L71.57 130.36C71.22 129.73 70.55 129.34 69.82 129.34H5.73L18.28 110.41H155.29Z" fill="#050B27"/>
<path d="M79.16 60.41C79.16 51.02 71.52 43.38 62.13 43.38C52.74 43.38 45.09 51.02 45.09 60.41C45.09 69.8 52.73 77.44 62.13 77.44C71.52 77.45 79.16 69.81 79.16 60.41ZM49.09 60.41C49.09 53.22 54.94 47.38 62.13 47.38C69.32 47.38 75.16 53.23 75.16 60.41C75.16 67.59 69.31 73.44 62.13 73.44C54.94 73.45 49.09 67.6 49.09 60.41Z" fill="#050B27"/>
<path d="M29.9 98.65C29.74 99.74 30.49 100.76 31.58 100.92C31.68 100.93 31.78 100.94 31.88 100.94C32.85 100.94 33.71 100.23 33.86 99.23C35.06 91.18 42.12 85.11 50.28 85.11H73.98C82.11 85.11 89.16 91.16 90.39 99.18C90.56 100.27 91.58 101.03 92.67 100.85C93.76 100.68 94.51 99.66 94.34 98.57C92.82 88.61 84.06 81.11 73.98 81.11H50.28C40.15 81.11 31.39 88.65 29.9 98.65Z" fill="#050B27"/>
<path d="M95.62 55.61C95.86 55.7 96.1 55.75 96.34 55.75C96.89 55.75 97.43 55.52 97.82 55.1L111.31 40.35H131.8C137.49 40.35 142.12 35.72 142.12 30.03V10.32C142.12 4.63 137.49 0 131.8 0H90.13C84.44 0 79.81 4.63 79.81 10.32V30.03C79.81 35.72 84.44 40.35 90.13 40.35H94.34V53.75C94.34 54.57 94.85 55.31 95.62 55.61ZM90.13 36.35C86.65 36.35 83.81 33.52 83.81 30.03V10.32C83.81 6.84 86.65 4 90.13 4H131.8C135.28 4 138.12 6.83 138.12 10.32V30.03C138.12 33.52 135.28 36.35 131.8 36.35H110.42C109.86 36.35 109.32 36.59 108.94 37L98.34 48.6V38.35C98.34 37.25 97.44 36.35 96.34 36.35H90.13Z" fill="#050B27"/>
<path d="M128.25 14.96C128.25 13.86 127.35 12.96 126.25 12.96H95.68C94.58 12.96 93.68 13.86 93.68 14.96C93.68 16.06 94.58 16.96 95.68 16.96H126.24C127.35 16.96 128.25 16.06 128.25 14.96Z" fill="#C177F7"/>
<path d="M121.47 23.61H100.45C99.35 23.61 98.45 24.51 98.45 25.61C98.45 26.71 99.35 27.61 100.45 27.61H121.47C122.57 27.61 123.47 26.71 123.47 25.61C123.47 24.51 122.58 23.61 121.47 23.61Z" fill="#66B8F9"/>
</g>
<defs>
<clipPath id="clip0">
<rect width="175.03" height="149.76" fill="white"/>
</clipPath>
</defs>
</svg>
